# xmcd CD database file
#
# Track frame offsets:
#	150
#	19869
#	34234
#	46770
#
# Disc length: 886 seconds
#
# Revision: 0
# Processed by: cddbd v1.5.1PL2 Copyright (c) Steve Scherf et al.
# Submitted via: CDex 1.51
#
DISCID=28037404
DTITLE=the brilliant green - angel song-イヴの鐘-
DYEAR=1900
DGENRE=JPop
TTITLE0=angel song-イヴの鐘-
TTITLE1=黒い翼
TTITLE2=白い雪とシャンパンとX'masSONG
TTITLE3=angel song-イヴの鐘-(Backing Track)
EXTD=
EXTT0=
EXTT1=
EXTT2=
EXTT3=
PLAYORDER=
